<svg width="195" height="35" viewBox="0 0 195 35" fill="none" xmlns="http://www.w3.org/2000/svg">
<path d="M178.613 34.4571V6.65977H184.965V11.2927H185.255C185.761 9.68803 186.63 8.45139 187.861 7.58273C189.103 6.70199 190.521 6.26163 192.114 6.26163C192.475 6.26163 192.88 6.27972 193.326 6.31592C193.784 6.34005 194.165 6.38228 194.466 6.4426V12.469C194.189 12.3725 193.748 12.288 193.145 12.2156C192.554 12.1312 191.981 12.0889 191.426 12.0889C190.231 12.0889 189.158 12.3483 188.205 12.8671C187.263 13.3738 186.521 14.0796 185.979 14.9845C185.436 15.8893 185.164 16.9329 185.164 18.1153V34.4571H178.613Z" fill="white"/>
<path d="M159.988 35C157.273 35 154.921 34.4028 152.93 33.2084C150.939 32.014 149.395 30.343 148.297 28.1954C147.211 26.0479 146.668 23.5384 146.668 20.667C146.668 17.7956 147.211 15.2801 148.297 13.1205C149.395 10.9609 150.939 9.28386 152.93 8.08944C154.921 6.89503 157.273 6.29782 159.988 6.29782C162.702 6.29782 165.055 6.89503 167.046 8.08944C169.036 9.28386 170.575 10.9609 171.661 13.1205C172.758 15.2801 173.307 17.7956 173.307 20.667C173.307 23.5384 172.758 26.0479 171.661 28.1954C170.575 30.343 169.036 32.014 167.046 33.2084C165.055 34.4028 162.702 35 159.988 35ZM160.024 29.7518C161.496 29.7518 162.727 29.3476 163.716 28.5393C164.705 27.7189 165.441 26.621 165.924 25.2456C166.418 23.8702 166.666 22.338 166.666 20.6489C166.666 18.9478 166.418 17.4095 165.924 16.0341C165.441 14.6467 164.705 13.5427 163.716 12.7223C162.727 11.9019 161.496 11.4917 160.024 11.4917C158.516 11.4917 157.261 11.9019 156.26 12.7223C155.271 13.5427 154.529 14.6467 154.034 16.0341C153.551 17.4095 153.31 18.9478 153.31 20.6489C153.31 22.338 153.551 23.8702 154.034 25.2456C154.529 26.621 155.271 27.7189 156.26 28.5393C157.261 29.3476 158.516 29.7518 160.024 29.7518Z" fill="white"/>
<path d="M142.937 6.65977V11.727H126.957V6.65977H142.937ZM130.903 0H137.454V26.0962C137.454 26.9769 137.586 27.6525 137.852 28.1231C138.129 28.5815 138.491 28.8952 138.938 29.0641C139.384 29.233 139.879 29.3175 140.422 29.3175C140.832 29.3175 141.206 29.2873 141.544 29.227C141.894 29.1667 142.159 29.1124 142.34 29.0641L143.444 34.1856C143.094 34.3063 142.593 34.439 141.942 34.5838C141.302 34.7285 140.518 34.813 139.589 34.8371C137.948 34.8854 136.47 34.6381 135.155 34.0951C133.84 33.5402 132.797 32.6836 132.025 31.5253C131.265 30.3671 130.891 28.9193 130.903 27.182V0Z" fill="white"/>
<path d="M112.024 35C109.249 35 106.866 34.3907 104.876 33.1722C102.897 31.9536 101.371 30.2706 100.297 28.1231C99.2354 25.9635 98.7046 23.4781 98.7046 20.667C98.7046 17.8438 99.2475 15.3525 100.333 13.1929C101.419 11.0212 102.951 9.33212 104.93 8.12564C106.921 6.90709 109.273 6.29782 111.988 6.29782C114.244 6.29782 116.241 6.71406 117.978 7.54653C119.728 8.36694 121.121 9.53119 122.159 11.0393C123.196 12.5353 123.787 14.2847 123.932 16.2875H117.67C117.417 14.9483 116.814 13.8323 115.861 12.9395C114.92 12.0346 113.659 11.5822 112.078 11.5822C110.739 11.5822 109.563 11.9442 108.549 12.668C107.536 13.3799 106.746 14.4054 106.179 15.7446C105.624 17.0838 105.346 18.6884 105.346 20.5584C105.346 22.4526 105.624 24.0813 106.179 25.4447C106.734 26.7959 107.512 27.8395 108.513 28.5755C109.527 29.2994 110.715 29.6613 112.078 29.6613C113.044 29.6613 113.906 29.4803 114.666 29.1184C115.438 28.7444 116.084 28.2075 116.603 27.5077C117.122 26.808 117.477 25.9574 117.67 24.956H123.932C123.775 26.9226 123.196 28.666 122.195 30.1861C121.193 31.6942 119.83 32.8766 118.105 33.7332C116.38 34.5777 114.353 35 112.024 35Z" fill="white"/>
<path d="M82.2511 35C79.4642 35 77.0572 34.4209 75.0304 33.2627C73.0155 32.0924 71.4652 30.4395 70.3794 28.304C69.2935 26.1565 68.7506 23.6289 68.7506 20.7213C68.7506 17.8619 69.2935 15.3525 70.3794 13.1929C71.4773 11.0212 73.0095 9.33212 74.9761 8.12564C76.9426 6.90709 79.253 6.29782 81.9073 6.29782C83.6205 6.29782 85.2372 6.57531 86.7573 7.13029C88.2896 7.67321 89.6408 8.51775 90.8111 9.6639C91.9935 10.8101 92.9225 12.2699 93.5981 14.0434C94.2737 15.8049 94.6115 17.9042 94.6115 20.3413V22.35H71.8272V17.9343H88.3318C88.3197 16.6796 88.0483 15.5636 87.5174 14.5863C86.9866 13.597 86.2446 12.8188 85.2915 12.2518C84.3504 11.6848 83.2525 11.4012 81.9978 11.4012C80.6586 11.4012 79.4823 11.727 78.4688 12.3785C77.4554 13.0179 76.6651 13.8625 76.0981 14.9121C75.5431 15.9497 75.2596 17.0898 75.2475 18.3325V22.1872C75.2475 23.8039 75.5431 25.1913 76.1343 26.3495C76.7255 27.4957 77.5519 28.3764 78.6136 28.9917C79.6753 29.595 80.918 29.8966 82.3416 29.8966C83.2947 29.8966 84.1574 29.7639 84.9295 29.4984C85.7017 29.221 86.3713 28.8168 86.9383 28.2859C87.5054 27.7551 87.9337 27.0975 88.2232 26.3133L94.3401 27.001C93.954 28.6177 93.2181 30.0293 92.1322 31.2358C91.0585 32.4302 89.6831 33.3592 88.0061 34.0227C86.329 34.6742 84.4107 35 82.2511 35Z" fill="white"/>
<path d="M64.2006 14.0072L58.2285 14.6587C58.0596 14.0555 57.764 13.4884 57.3418 12.9576C56.9316 12.4267 56.3766 11.9984 55.6768 11.6727C54.9771 11.3469 54.1205 11.1841 53.107 11.1841C51.7437 11.1841 50.5976 11.4797 49.6686 12.0708C48.7516 12.662 48.2992 13.4281 48.3113 14.3692C48.2992 15.1775 48.5948 15.835 49.198 16.3418C49.8133 16.8485 50.8268 17.2647 52.2384 17.5905L56.9798 18.6039C59.61 19.171 61.5645 20.0698 62.8433 21.3004C64.1343 22.531 64.7858 24.1417 64.7978 26.1324C64.7858 27.8818 64.273 29.4261 63.2596 30.7652C62.2582 32.0924 60.8647 33.1299 59.0791 33.878C57.2935 34.626 55.2425 35 52.9261 35C49.5238 35 46.7851 34.2882 44.7099 32.8645C42.6348 31.4288 41.3981 29.4321 41 26.8743L47.3883 26.259C47.6779 27.5138 48.2932 28.4609 49.2342 29.1003C50.1753 29.7397 51.3999 30.0595 52.908 30.0595C54.4643 30.0595 55.713 29.7397 56.6541 29.1003C57.6072 28.4609 58.0838 27.6706 58.0838 26.7296C58.0838 25.9333 57.7761 25.2758 57.1608 24.757C56.5576 24.2382 55.6165 23.84 54.3376 23.5626L49.5962 22.5672C46.9299 22.0122 44.9573 21.0772 43.6784 19.7621C42.3995 18.435 41.7661 16.758 41.7782 14.7311C41.7661 13.0179 42.2306 11.5339 43.1717 10.2792C44.1248 9.0124 45.4459 8.03515 47.135 7.34746C48.8361 6.6477 50.7966 6.29782 53.0165 6.29782C56.274 6.29782 58.8378 6.99155 60.7079 8.379C62.59 9.76645 63.7542 11.6425 64.2006 14.0072Z" fill="white"/>
<rect x="1.5" y="6.5" width="27" height="27" stroke="white" stroke-width="3"/>
<circle cx="22.0312" cy="27.0312" r="7.96875" fill="white"/>
</svg>
