<svg width="154" height="35" viewBox="0 0 154 35" fill="none" xmlns="http://www.w3.org/2000/svg">
<path d="M137.613 34.4571V6.65977H143.965V11.2927H144.255C144.761 9.68803 145.63 8.45139 146.861 7.58273C148.103 6.70199 149.521 6.26163 151.114 6.26163C151.475 6.26163 151.88 6.27972 152.326 6.31592C152.784 6.34005 153.165 6.38228 153.466 6.4426V12.469C153.189 12.3725 152.748 12.288 152.145 12.2156C151.554 12.1312 150.981 12.0889 150.426 12.0889C149.231 12.0889 148.158 12.3483 147.205 12.8671C146.263 13.3738 145.521 14.0796 144.979 14.9845C144.436 15.8893 144.164 16.9329 144.164 18.1153V34.4571H137.613Z" fill="white"/>
<path d="M118.988 35C116.273 35 113.921 34.4028 111.93 33.2084C109.939 32.014 108.395 30.343 107.297 28.1954C106.211 26.0479 105.668 23.5384 105.668 20.667C105.668 17.7956 106.211 15.2801 107.297 13.1205C108.395 10.9609 109.939 9.28386 111.93 8.08944C113.921 6.89503 116.273 6.29782 118.988 6.29782C121.702 6.29782 124.055 6.89503 126.046 8.08944C128.036 9.28386 129.575 10.9609 130.661 13.1205C131.758 15.2801 132.307 17.7956 132.307 20.667C132.307 23.5384 131.758 26.0479 130.661 28.1954C129.575 30.343 128.036 32.014 126.046 33.2084C124.055 34.4028 121.702 35 118.988 35ZM119.024 29.7518C120.496 29.7518 121.727 29.3476 122.716 28.5393C123.705 27.7189 124.441 26.621 124.924 25.2456C125.418 23.8702 125.666 22.338 125.666 20.6489C125.666 18.9478 125.418 17.4095 124.924 16.0341C124.441 14.6467 123.705 13.5427 122.716 12.7223C121.727 11.9019 120.496 11.4917 119.024 11.4917C117.516 11.4917 116.261 11.9019 115.26 12.7223C114.271 13.5427 113.529 14.6467 113.034 16.0341C112.551 17.4095 112.31 18.9478 112.31 20.6489C112.31 22.338 112.551 23.8702 113.034 25.2456C113.529 26.621 114.271 27.7189 115.26 28.5393C116.261 29.3476 117.516 29.7518 119.024 29.7518Z" fill="white"/>
<path d="M101.937 6.65977V11.727H85.9574V6.65977H101.937ZM89.9026 0H96.4538V26.0962C96.4538 26.9769 96.5865 27.6525 96.8519 28.1231C97.1294 28.5815 97.4913 28.8952 97.9377 29.0641C98.3841 29.233 98.8788 29.3175 99.4217 29.3175C99.8319 29.3175 100.206 29.2873 100.544 29.227C100.894 29.1667 101.159 29.1124 101.34 29.0641L102.444 34.1856C102.094 34.3063 101.593 34.439 100.942 34.5838C100.302 34.7285 99.5182 34.813 98.5892 34.8371C96.9484 34.8854 95.4705 34.6381 94.1554 34.0951C92.8404 33.5402 91.7968 32.6836 91.0246 31.5253C90.2645 30.3671 89.8905 28.9193 89.9026 27.182V0Z" fill="white"/>
<path d="M71.0241 35C68.2492 35 65.8664 34.3907 63.8757 33.1722C61.8971 31.9536 60.3709 30.2706 59.2971 28.1231C58.2354 25.9635 57.7046 23.4781 57.7046 20.667C57.7046 17.8438 58.2475 15.3525 59.3333 13.1929C60.4192 11.0212 61.9514 9.33212 63.93 8.12564C65.9207 6.90709 68.2734 6.29782 70.9879 6.29782C73.2441 6.29782 75.2408 6.71406 76.9781 7.54653C78.7275 8.36694 80.121 9.53119 81.1586 11.0393C82.1961 12.5353 82.7873 14.2847 82.9321 16.2875H76.6705C76.4171 14.9483 75.8139 13.8323 74.8607 12.9395C73.9197 12.0346 72.6589 11.5822 71.0784 11.5822C69.7392 11.5822 68.5629 11.9441 67.5495 12.668C66.536 13.3799 65.7458 14.4054 65.1787 15.7446C64.6238 17.0838 64.3463 18.6884 64.3463 20.5584C64.3463 22.4526 64.6238 24.0813 65.1787 25.4447C65.7337 26.7959 66.5119 27.8395 67.5133 28.5755C68.5267 29.2994 69.7151 29.6613 71.0784 29.6613C72.0436 29.6613 72.9062 29.4803 73.6663 29.1184C74.4385 28.7444 75.0839 28.2075 75.6027 27.5077C76.1215 26.808 76.4774 25.9574 76.6705 24.956H82.9321C82.7753 26.9226 82.1961 28.666 81.1948 30.1861C80.1934 31.6942 78.8301 32.8766 77.1048 33.7332C75.3795 34.5777 73.3526 35 71.0241 35Z" fill="white"/>
<path d="M41.2511 35C38.4642 35 36.0572 34.4209 34.0304 33.2627C32.0155 32.0924 30.4652 30.4395 29.3794 28.304C28.2935 26.1565 27.7506 23.6289 27.7506 20.7213C27.7506 17.8619 28.2935 15.3525 29.3794 13.1929C30.4773 11.0212 32.0095 9.33212 33.9761 8.12564C35.9426 6.90709 38.253 6.29782 40.9073 6.29782C42.6205 6.29782 44.2372 6.57531 45.7573 7.13029C47.2896 7.67321 48.6408 8.51775 49.8111 9.6639C50.9935 10.8101 51.9225 12.2699 52.5981 14.0434C53.2737 15.8049 53.6115 17.9042 53.6115 20.3413V22.35H30.8272V17.9343H47.3318C47.3197 16.6796 47.0483 15.5636 46.5174 14.5863C45.9866 13.597 45.2446 12.8188 44.2915 12.2518C43.3504 11.6848 42.2525 11.4012 40.9978 11.4012C39.6586 11.4012 38.4823 11.727 37.4688 12.3785C36.4554 13.0179 35.6651 13.8625 35.0981 14.9121C34.5431 15.9497 34.2596 17.0898 34.2475 18.3325V22.1872C34.2475 23.8039 34.5431 25.1913 35.1343 26.3495C35.7255 27.4957 36.5519 28.3764 37.6136 28.9917C38.6753 29.595 39.918 29.8966 41.3416 29.8966C42.2947 29.8966 43.1574 29.7639 43.9295 29.4984C44.7017 29.2209 45.3713 28.8168 45.9383 28.2859C46.5054 27.7551 46.9337 27.0975 47.2232 26.3133L53.3401 27.001C52.954 28.6177 52.2181 30.0293 51.1322 31.2358C50.0585 32.4302 48.6831 33.3592 47.0061 34.0227C45.329 34.6742 43.4107 35 41.2511 35Z" fill="white"/>
<path d="M23.2006 14.0072L17.2285 14.6587C17.0596 14.0555 16.764 13.4884 16.3418 12.9576C15.9316 12.4267 15.3766 11.9984 14.6768 11.6727C13.9771 11.3469 13.1205 11.1841 12.107 11.1841C10.7437 11.1841 9.59755 11.4797 8.66856 12.0708C7.75164 12.662 7.29921 13.4281 7.31127 14.3692C7.29921 15.1775 7.59479 15.835 8.19804 16.3418C8.81334 16.8485 9.82678 17.2647 11.2384 17.5905L15.9798 18.6039C18.61 19.171 20.5645 20.0698 21.8433 21.3004C23.1343 22.531 23.7858 24.1417 23.7978 26.1324C23.7858 27.8818 23.273 29.4261 22.2596 30.7652C21.2582 32.0924 19.8647 33.1299 18.0791 33.878C16.2935 34.626 14.2425 35 11.9261 35C8.52378 35 5.78507 34.2882 3.70993 32.8645C1.63478 31.4288 0.398139 29.4321 0 26.8743L6.38831 26.259C6.67787 27.5138 7.29317 28.4609 8.23423 29.1003C9.17528 29.7397 10.3999 30.0595 11.908 30.0595C13.4643 30.0595 14.713 29.7397 15.6541 29.1003C16.6072 28.4609 17.0838 27.6706 17.0838 26.7296C17.0838 25.9333 16.7761 25.2758 16.1608 24.757C15.5576 24.2382 14.6165 23.84 13.3376 23.5626L8.59617 22.5672C5.92985 22.0122 3.95726 21.0772 2.67839 19.7621C1.39952 18.435 0.766115 16.758 0.77818 14.7311C0.766115 13.0179 1.23061 11.5339 2.17166 10.2792C3.12478 9.0124 4.44588 8.03515 6.13495 7.34746C7.83609 6.6477 9.79662 6.29782 12.0165 6.29782C15.274 6.29782 17.8378 6.99155 19.7079 8.379C21.59 9.76645 22.7542 11.6425 23.2006 14.0072Z" fill="white"/>
</svg>
